<?xml version="1.0" encoding="UTF-8"?>
<svg width="64" height="64" viewBox="0 0 24 24" fill="none" xmlns="http://www.w3.org/2000/svg">
  <rect width="24" height="24" rx="4" fill="#111" />
  <path d="M12 2C8.13 2 5 5.13 5 9c0 3.87 2.61 7.14 6.25 7.86.46.08.63-.2.63-.45 0-.22-.01-.8-.01-1.57-2.54.55-3.08-1.22-3.08-1.22-.42-1.07-1.02-1.36-1.02-1.36-.83-.57.06-.56.06-.56.92.06 1.4.95 1.4.95.82 1.4 2.15 1 2.67.76.08-.59.32-1 .58-1.23-2.03-.23-4.16-1.02-4.16-4.53 0-1 .36-1.82.95-2.46-.1-.24-.41-1.2.09-2.5 0 0 .78-.25 2.54.94.74-.21 1.53-.32 2.32-.32.79 0 1.58.11 2.32.32 1.76-1.2 2.54-.94 2.54-.94.5 1.3.19 2.26.09 2.5.59.64.95 1.46.95 2.46 0 3.52-2.13 4.29-4.16 4.52.33.29.62.86.62 1.74 0 1.25-.01 2.26-.01 2.57 0 .25.17.54.64.44C16.39 16.14 19 12.87 19 9c0-3.87-3.13-7-7-7z" fill="#fff"/>
</svg>
