<?xml version="1.0" encoding="UTF-8"?>
<svg width="64" height="64" viewBox="0 0 24 24" fill="none" xmlns="http://www.w3.org/2000/svg">
  <rect width="24" height="24" rx="4" fill="#111" />
  <path d="M19 7.5c-.5.2-1 .3-1.6.4.6-.4 1.1-1 1.3-1.6-.6.4-1.3.7-2 .9-.6-.6-1.6-1-2.6-1-2 0-3.6 1.6-3.6 3.6 0 .3 0 .6.1.8-3-.2-5.6-1.6-7.4-3.8-.3.5-.4 1-.4 1.6 0 1.2.6 2.2 1.6 2.8-.5 0-1-.1-1.4-.4 0 1.8 1.3 3.2 3 3.6-.3.1-.6.1-.9.1-.2 0-.4 0-.6-.1.4 1.2 1.6 2 3 2-1.1.8-2.4 1.2-3.8 1.2-.2 0-.4 0-.6-.1 1.4.9 3 1.4 4.7 1.4 5.6 0 8.6-4.6 8.6-8.6v-.4c.6-.4 1-1 1.3-1.6-.6.3-1.2.5-1.9.6z" fill="#1DA1F2"/>
</svg>
